<mxfile host="65bd71144e">
    <diagram name="第 1 页" id="gvvvwDGwYdc-F95-gQ5J">
        <mxGraphModel dx="863" dy="501" grid="1" gridSize="10" guides="1" tooltips="1" connect="1" arrows="1" fold="1" page="1" pageScale="1" pageWidth="827" pageHeight="1169" math="0" shadow="0">
            <root>
                <mxCell id="0"/>
                <mxCell id="1" parent="0"/>
                <mxCell id="1ao_alAASZmU5fpB-2yt-18" style="edgeStyle=orthogonalEdgeStyle;rounded=0;orthogonalLoop=1;jettySize=auto;html=1;entryX=0.5;entryY=0;entryDx=0;entryDy=0;" parent="1" source="WhTbvDPNfGWsVlGT7gJu-5" target="WhTbvDPNfGWsVlGT7gJu-24" edge="1">
                    <mxGeometry relative="1" as="geometry"/>
                </mxCell>
                <mxCell id="WhTbvDPNfGWsVlGT7gJu-5" value="" style="rounded=0;whiteSpace=wrap;html=1;fillColor=none;dashed=1;dashPattern=8 8;movable=1;resizable=1;rotatable=1;deletable=1;editable=1;locked=0;connectable=1;" parent="1" vertex="1">
                    <mxGeometry x="194" y="80" width="440" height="360" as="geometry"/>
                </mxCell>
                <mxCell id="WhTbvDPNfGWsVlGT7gJu-6" style="edgeStyle=orthogonalEdgeStyle;rounded=0;orthogonalLoop=1;jettySize=auto;html=1;entryX=0.5;entryY=0;entryDx=0;entryDy=0;" parent="1" source="WhTbvDPNfGWsVlGT7gJu-1" target="WhTbvDPNfGWsVlGT7gJu-7" edge="1">
                    <mxGeometry relative="1" as="geometry"/>
                </mxCell>
                <mxCell id="WhTbvDPNfGWsVlGT7gJu-1" value="" style="rounded=0;whiteSpace=wrap;html=1;fillColor=none;dashed=1;dashPattern=8 8;" parent="1" vertex="1">
                    <mxGeometry x="194" y="10" width="440" height="60" as="geometry"/>
                </mxCell>
                <mxCell id="WhTbvDPNfGWsVlGT7gJu-4" value="" style="edgeStyle=orthogonalEdgeStyle;rounded=0;orthogonalLoop=1;jettySize=auto;html=1;" parent="1" source="WhTbvDPNfGWsVlGT7gJu-2" target="WhTbvDPNfGWsVlGT7gJu-3" edge="1">
                    <mxGeometry relative="1" as="geometry"/>
                </mxCell>
                <mxCell id="WhTbvDPNfGWsVlGT7gJu-2" value="文献阅读" style="rounded=0;whiteSpace=wrap;html=1;" parent="1" vertex="1">
                    <mxGeometry x="234" y="20" width="120" height="40" as="geometry"/>
                </mxCell>
                <mxCell id="WhTbvDPNfGWsVlGT7gJu-3" value="专家咨询" style="rounded=0;whiteSpace=wrap;html=1;" parent="1" vertex="1">
                    <mxGeometry x="474" y="20" width="120" height="40" as="geometry"/>
                </mxCell>
                <mxCell id="WhTbvDPNfGWsVlGT7gJu-7" value="技术选型" style="rounded=0;whiteSpace=wrap;html=1;" parent="1" vertex="1">
                    <mxGeometry x="354" y="100" width="120" height="40" as="geometry"/>
                </mxCell>
                <mxCell id="1ao_alAASZmU5fpB-2yt-35" style="edgeStyle=orthogonalEdgeStyle;rounded=0;orthogonalLoop=1;jettySize=auto;html=1;entryX=0.5;entryY=0;entryDx=0;entryDy=0;" parent="1" source="WhTbvDPNfGWsVlGT7gJu-22" target="WhTbvDPNfGWsVlGT7gJu-26" edge="1">
                    <mxGeometry relative="1" as="geometry"/>
                </mxCell>
                <mxCell id="WhTbvDPNfGWsVlGT7gJu-22" value="" style="rounded=0;whiteSpace=wrap;html=1;fillColor=none;dashed=1;dashPattern=8 8;" parent="1" vertex="1">
                    <mxGeometry x="194" y="450" width="440" height="160" as="geometry"/>
                </mxCell>
                <mxCell id="11" style="edgeStyle=elbowEdgeStyle;elbow=vertical;html=1;" edge="1" parent="1" source="WhTbvDPNfGWsVlGT7gJu-24" target="1ao_alAASZmU5fpB-2yt-21">
                    <mxGeometry relative="1" as="geometry"/>
                </mxCell>
                <mxCell id="12" style="edgeStyle=elbowEdgeStyle;elbow=vertical;html=1;" edge="1" parent="1" source="WhTbvDPNfGWsVlGT7gJu-24" target="1ao_alAASZmU5fpB-2yt-22">
                    <mxGeometry relative="1" as="geometry"/>
                </mxCell>
                <mxCell id="WhTbvDPNfGWsVlGT7gJu-24" value="需求分析" style="rounded=0;whiteSpace=wrap;html=1;" parent="1" vertex="1">
                    <mxGeometry x="354" y="470" width="120" height="40" as="geometry"/>
                </mxCell>
                <mxCell id="1ao_alAASZmU5fpB-2yt-44" style="edgeStyle=orthogonalEdgeStyle;rounded=0;orthogonalLoop=1;jettySize=auto;html=1;" parent="1" source="WhTbvDPNfGWsVlGT7gJu-25" target="WhTbvDPNfGWsVlGT7gJu-32" edge="1">
                    <mxGeometry relative="1" as="geometry"/>
                </mxCell>
                <mxCell id="WhTbvDPNfGWsVlGT7gJu-25" value="" style="rounded=0;whiteSpace=wrap;html=1;fillColor=none;dashed=1;dashPattern=8 8;" parent="1" vertex="1">
                    <mxGeometry x="193" y="630" width="440" height="150" as="geometry"/>
                </mxCell>
                <mxCell id="14" style="edgeStyle=elbowEdgeStyle;elbow=vertical;html=1;entryX=0.5;entryY=0;entryDx=0;entryDy=0;" edge="1" parent="1" source="WhTbvDPNfGWsVlGT7gJu-26" target="WhTbvDPNfGWsVlGT7gJu-28">
                    <mxGeometry relative="1" as="geometry"/>
                </mxCell>
                <mxCell id="15" style="edgeStyle=elbowEdgeStyle;elbow=vertical;html=1;entryX=0.5;entryY=0;entryDx=0;entryDy=0;" edge="1" parent="1" source="WhTbvDPNfGWsVlGT7gJu-26" target="WhTbvDPNfGWsVlGT7gJu-27">
                    <mxGeometry relative="1" as="geometry"/>
                </mxCell>
                <mxCell id="WhTbvDPNfGWsVlGT7gJu-26" value="系统设计" style="rounded=0;whiteSpace=wrap;html=1;" parent="1" vertex="1">
                    <mxGeometry x="354" y="650" width="120" height="40" as="geometry"/>
                </mxCell>
                <mxCell id="WhTbvDPNfGWsVlGT7gJu-27" value="详细设计" style="rounded=0;whiteSpace=wrap;html=1;" parent="1" vertex="1">
                    <mxGeometry x="463" y="720" width="120" height="40" as="geometry"/>
                </mxCell>
                <mxCell id="WhTbvDPNfGWsVlGT7gJu-28" value="总体设计" style="rounded=0;whiteSpace=wrap;html=1;" parent="1" vertex="1">
                    <mxGeometry x="243" y="720" width="120" height="40" as="geometry"/>
                </mxCell>
                <mxCell id="1ao_alAASZmU5fpB-2yt-45" style="edgeStyle=orthogonalEdgeStyle;rounded=0;orthogonalLoop=1;jettySize=auto;html=1;entryX=0.5;entryY=0;entryDx=0;entryDy=0;" parent="1" source="WhTbvDPNfGWsVlGT7gJu-31" target="WhTbvDPNfGWsVlGT7gJu-34" edge="1">
                    <mxGeometry relative="1" as="geometry"/>
                </mxCell>
                <mxCell id="WhTbvDPNfGWsVlGT7gJu-31" value="" style="rounded=0;whiteSpace=wrap;html=1;fillColor=none;dashed=1;dashPattern=8 8;" parent="1" vertex="1">
                    <mxGeometry x="193" y="800" width="440" height="150" as="geometry"/>
                </mxCell>
                <mxCell id="8" style="edgeStyle=orthogonalEdgeStyle;html=1;entryX=0.5;entryY=0;entryDx=0;entryDy=0;" edge="1" parent="1" source="WhTbvDPNfGWsVlGT7gJu-32" target="3">
                    <mxGeometry relative="1" as="geometry"/>
                </mxCell>
                <mxCell id="10" style="edgeStyle=elbowEdgeStyle;elbow=vertical;html=1;entryX=0.5;entryY=0;entryDx=0;entryDy=0;" edge="1" parent="1" source="WhTbvDPNfGWsVlGT7gJu-32" target="2">
                    <mxGeometry relative="1" as="geometry"/>
                </mxCell>
                <mxCell id="16" style="edgeStyle=elbowEdgeStyle;elbow=vertical;html=1;" edge="1" parent="1" source="WhTbvDPNfGWsVlGT7gJu-32" target="4">
                    <mxGeometry relative="1" as="geometry"/>
                </mxCell>
                <mxCell id="17" style="edgeStyle=elbowEdgeStyle;elbow=vertical;html=1;" edge="1" parent="1" source="WhTbvDPNfGWsVlGT7gJu-32" target="5">
                    <mxGeometry relative="1" as="geometry"/>
                </mxCell>
                <mxCell id="WhTbvDPNfGWsVlGT7gJu-32" value="系统实现" style="rounded=0;whiteSpace=wrap;html=1;" parent="1" vertex="1">
                    <mxGeometry x="353" y="820" width="120" height="40" as="geometry"/>
                </mxCell>
                <mxCell id="WhTbvDPNfGWsVlGT7gJu-33" value="" style="rounded=0;whiteSpace=wrap;html=1;fillColor=none;dashed=1;dashPattern=8 8;" parent="1" vertex="1">
                    <mxGeometry x="193" y="970" width="440" height="150" as="geometry"/>
                </mxCell>
                <mxCell id="19" style="edgeStyle=elbowEdgeStyle;elbow=vertical;html=1;" edge="1" parent="1" source="WhTbvDPNfGWsVlGT7gJu-34" target="1ao_alAASZmU5fpB-2yt-46">
                    <mxGeometry relative="1" as="geometry"/>
                </mxCell>
                <mxCell id="20" style="edgeStyle=elbowEdgeStyle;elbow=vertical;html=1;entryX=0.5;entryY=0;entryDx=0;entryDy=0;" edge="1" parent="1" source="WhTbvDPNfGWsVlGT7gJu-34" target="18">
                    <mxGeometry relative="1" as="geometry"/>
                </mxCell>
                <mxCell id="WhTbvDPNfGWsVlGT7gJu-34" value="系统案例应用" style="rounded=0;whiteSpace=wrap;html=1;" parent="1" vertex="1">
                    <mxGeometry x="353" y="990" width="120" height="40" as="geometry"/>
                </mxCell>
                <mxCell id="WhTbvDPNfGWsVlGT7gJu-8" value="前端技术" style="rounded=0;whiteSpace=wrap;html=1;fillColor=none;verticalAlign=top;" parent="1" vertex="1">
                    <mxGeometry x="224" y="160" width="160" height="270" as="geometry"/>
                </mxCell>
                <mxCell id="WhTbvDPNfGWsVlGT7gJu-18" value="&lt;span style=&quot;color: rgb(0, 0, 0); font-family: Helvetica; font-size: 12px; font-style: normal; font-variant-ligatures: normal; font-variant-caps: normal; font-weight: 400; letter-spacing: normal; orphans: 2; text-align: center; text-indent: 0px; text-transform: none; widows: 2; word-spacing: 0px; -webkit-text-stroke-width: 0px; background-color: rgb(251, 251, 251); text-decoration-thickness: initial; text-decoration-style: initial; text-decoration-color: initial; float: none; display: inline !important;&quot;&gt;React.js&lt;/span&gt;" style="rounded=0;whiteSpace=wrap;html=1;" parent="1" vertex="1">
                    <mxGeometry x="244" y="250" width="120" height="40" as="geometry"/>
                </mxCell>
                <mxCell id="1ao_alAASZmU5fpB-2yt-1" value="React Leaflet" style="rounded=0;whiteSpace=wrap;html=1;" parent="1" vertex="1">
                    <mxGeometry x="244" y="370" width="120" height="40" as="geometry"/>
                </mxCell>
                <mxCell id="1ao_alAASZmU5fpB-2yt-5" value="TypeScript" style="rounded=0;whiteSpace=wrap;html=1;" parent="1" vertex="1">
                    <mxGeometry x="244" y="190" width="120" height="40" as="geometry"/>
                </mxCell>
                <mxCell id="1ao_alAASZmU5fpB-2yt-6" value="BPMN.js" style="rounded=0;whiteSpace=wrap;html=1;" parent="1" vertex="1">
                    <mxGeometry x="244" y="310" width="120" height="40" as="geometry"/>
                </mxCell>
                <mxCell id="1ao_alAASZmU5fpB-2yt-21" value="功能性需求" style="rounded=0;whiteSpace=wrap;html=1;" parent="1" vertex="1">
                    <mxGeometry x="259" y="550" width="95" height="40" as="geometry"/>
                </mxCell>
                <mxCell id="1ao_alAASZmU5fpB-2yt-22" value="非功能性需求" style="rounded=0;whiteSpace=wrap;html=1;" parent="1" vertex="1">
                    <mxGeometry x="474" y="550" width="95" height="40" as="geometry"/>
                </mxCell>
                <mxCell id="1ao_alAASZmU5fpB-2yt-46" value="河网提取模型&lt;br&gt;工作流构建运行" style="rounded=0;whiteSpace=wrap;html=1;" parent="1" vertex="1">
                    <mxGeometry x="463" y="1060" width="120" height="40" as="geometry"/>
                </mxCell>
                <mxCell id="2" value="用户系统" style="rounded=0;whiteSpace=wrap;html=1;" vertex="1" parent="1">
                    <mxGeometry x="200.5" y="890" width="95" height="40" as="geometry"/>
                </mxCell>
                <mxCell id="3" value="地图服务" style="rounded=0;whiteSpace=wrap;html=1;" vertex="1" parent="1">
                    <mxGeometry x="310.5" y="890" width="95" height="40" as="geometry"/>
                </mxCell>
                <mxCell id="4" value="模型库管理" style="rounded=0;whiteSpace=wrap;html=1;" vertex="1" parent="1">
                    <mxGeometry x="420.5" y="890" width="95" height="40" as="geometry"/>
                </mxCell>
                <mxCell id="5" value="模型应用" style="rounded=0;whiteSpace=wrap;html=1;" vertex="1" parent="1">
                    <mxGeometry x="530.5" y="890" width="95" height="40" as="geometry"/>
                </mxCell>
                <mxCell id="18" value="河网提取模型&lt;br&gt;单独调用" style="rounded=0;whiteSpace=wrap;html=1;" vertex="1" parent="1">
                    <mxGeometry x="243" y="1060" width="120" height="40" as="geometry"/>
                </mxCell>
                <mxCell id="WhTbvDPNfGWsVlGT7gJu-9" value="后端技术" style="rounded=0;whiteSpace=wrap;html=1;fillColor=none;verticalAlign=top;container=0;" parent="1" vertex="1">
                    <mxGeometry x="444" y="160" width="160" height="270" as="geometry"/>
                </mxCell>
                <mxCell id="1ao_alAASZmU5fpB-2yt-11" value="Spring Boot" style="rounded=0;whiteSpace=wrap;html=1;container=0;" parent="1" vertex="1">
                    <mxGeometry x="464" y="230" width="120" height="40" as="geometry"/>
                </mxCell>
                <mxCell id="1ao_alAASZmU5fpB-2yt-15" value="JPA" style="rounded=0;whiteSpace=wrap;html=1;container=0;" parent="1" vertex="1">
                    <mxGeometry x="464" y="320" width="120" height="40" as="geometry"/>
                </mxCell>
            </root>
        </mxGraphModel>
    </diagram>
</mxfile>